<?xml version="1.0" encoding="utf-8"?>
<!-- Generator: Adobe Illustrator 24.0.3, SVG Export Plug-In . SVG Version: 6.00 Build 0)  -->
<svg version="1.1" id="Soundrown_Logo" xmlns="http://www.w3.org/2000/svg" xmlns:xlink="http://www.w3.org/1999/xlink" x="0px"
	 y="0px" viewBox="0 0 48 48" style="enable-background:new 0 0 48 48;" xml:space="preserve">
<path d="M24,0C10.8,0,0,10.8,0,24s10.8,24,24,24s24-10.8,24-24S37.2,0,24,0z M32.3,39.4C31,30.3,11,33.5,11,19.5
	c0-7.1,4.6-10.9,11.8-10.9c3.7,0,7.5,0.8,11.1,2.1l-1,4.1c0-0.1-5.5-2-10.1-2c-4.6,0-7.2,2.1-7.2,6.4c0,10.2,21.1,6,21.4,20H32.3z"
	/>
</svg>
