<?xml version="1.0" encoding="utf-8"?>
<!-- Generator: Adobe Illustrator 24.0.3, SVG Export Plug-In . SVG Version: 6.00 Build 0)  -->
<svg version="1.1" id="Layer_1" xmlns="http://www.w3.org/2000/svg" xmlns:xlink="http://www.w3.org/1999/xlink" x="0px" y="0px"
	 viewBox="0 0 55 55" style="enable-background:new 0 0 55 55;" xml:space="preserve">
<style type="text/css">
	.st0{fill:#EFEFEF;stroke:#000000;stroke-width:2.2536;stroke-linecap:square;stroke-miterlimit:10;}
	.st1{fill:#EFEFEF;}
</style>
<g id="Layer_2_1_">
	<path class="st0" d="M38.3,14.8"/>
	<path class="st1" d="M30.1,42.5c1.5,0.2,3.3,0.7,4.6,1.7c1.4,1.1,1.5,3.4,1.5,3.4H17.9c0,0,0.1-2.3,1.5-3.4c1.3-1,3.2-1.5,4.8-1.7
		c0.3-0.3,2.9-3.6-0.7-6.9c-5.1-0.9-13.9-3.9-13.9-13h16.2V12.5c0-0.4-0.2-4.4-4.7-4.4c-4.3,0-4.4,5.9-4.4,6.2
		c0,0.6-0.5,1.1-1.1,1.1s-1.1-0.5-1.1-1.1c0-2.9,1.4-8.4,6.6-8.4c3,0,4.8,1.3,5.8,2.9c1-1.6,2.8-2.9,5.8-2.9c5.2,0,6.6,4.7,6.6,7.2
		c0,0.6-0.5,1.1-1.1,1.1s-1.1-0.5-1.1-1.1c0-0.5-0.1-5-4.4-5c-4.5,0-4.7,4-4.7,4.4c0,0,0,0,0,0v10.2h16.2c0,9-8.5,12-13.6,13
		C26.9,39,29.8,42.3,30.1,42.5z"/>
	<ellipse class="st1" cx="12.5" cy="16" rx="1.3" ry="1.3"/>
	<ellipse class="st1" cx="17" cy="18.5" rx="1.3" ry="1.3"/>
	<ellipse class="st1" cx="34.4" cy="15.7" rx="1.3" ry="1.3"/>
	<ellipse class="st1" cx="42.8" cy="14" rx="1.3" ry="1.3"/>
	<ellipse class="st1" cx="39" cy="17.9" rx="1.3" ry="1.3"/>
</g>
</svg>
