<?xml version="1.0" encoding="utf-8"?>
<!-- Generator: Adobe Illustrator 24.0.3, SVG Export Plug-In . SVG Version: 6.00 Build 0)  -->
<svg version="1.1" id="Layer_1" xmlns="http://www.w3.org/2000/svg" xmlns:xlink="http://www.w3.org/1999/xlink" x="0px" y="0px"
	 viewBox="0 0 20 20" style="enable-background:new 0 0 20 20;" xml:space="preserve">
<style type="text/css">
	.st0{fill:#EFEFEF;}
</style>
<path class="st0" d="M18.5,4.7c-0.6,0.3-1.3,0.5-2,0.6c0.7-0.4,1.3-1.1,1.5-1.9c-0.7,0.4-1.4,0.7-2.2,0.8c-0.6-0.7-1.5-1.1-2.6-1.1
	c-1.9,0-3.5,1.6-3.5,3.5c0,0.3,0,0.5,0.1,0.8C7,7.2,4.4,5.8,2.7,3.7C2.4,4.2,2.2,4.8,2.2,5.5c0,1.2,0.6,2.3,1.6,2.9
	c-0.6,0-1.1-0.2-1.6-0.4v0c0,1.7,1.2,3.1,2.8,3.4c-0.3,0.1-0.6,0.1-0.9,0.1c-0.2,0-0.4,0-0.7-0.1c0.4,1.4,1.7,2.4,3.3,2.4
	c-1.2,0.9-2.7,1.5-4.3,1.5c-0.3,0-0.6,0-0.8,0c1.5,1,3.4,1.6,5.4,1.6c6.4,0,9.9-5.3,9.9-9.9c0-0.2,0-0.3,0-0.5
	C17.5,6,18.1,5.4,18.5,4.7"/>
</svg>
