<?xml version="1.0" encoding="utf-8"?>
<!-- Generator: Adobe Illustrator 24.0.3, SVG Export Plug-In . SVG Version: 6.00 Build 0)  -->
<svg version="1.1" id="Layer_1" xmlns="http://www.w3.org/2000/svg" xmlns:xlink="http://www.w3.org/1999/xlink" x="0px" y="0px"
	 viewBox="0 0 55 55" style="enable-background:new 0 0 55 55;" xml:space="preserve">
<style type="text/css">
	.st0{fill:#EFEFEF;}
</style>
<g id="Layer_5">
	<path class="st0" d="M18.3,43.7c-0.5,0-0.9-0.3-1.1-0.8l-5.1-14.6l-2.1,3.5c-0.2,0.3-0.6,0.6-1,0.6H4.5c-0.6,0-1.1-0.5-1.1-1.1
		s0.5-1.1,1.1-1.1h3.9l3-5c0.2-0.4,0.6-0.6,1.1-0.5c0.4,0,0.8,0.3,1,0.8L17.9,38l3.8-23c0.1-0.5,0.6-0.9,1.1-0.9c0,0,0,0,0,0
		c0.5,0,1,0.4,1.1,0.9l3.8,19.3L31.2,24c0.1-0.5,0.6-0.8,1-0.8c0.5,0,0.9,0.3,1.1,0.7l2.9,7.6l3.7-13.6c0.1-0.5,0.6-0.8,1.1-0.8
		c0.5,0,0.9,0.3,1.1,0.8l4,12.5h4.4c0.6,0,1.1,0.5,1.1,1.1s-0.5,1.1-1.1,1.1h-5.2c-0.5,0-0.9-0.3-1.1-0.8l-3-9.6l-3.6,13.2
		c-0.1,0.5-0.5,0.8-1,0.8c-0.5,0-0.9-0.3-1.1-0.7l-3-7.9l-3.8,11.3c-0.2,0.5-0.6,0.8-1.1,0.8c-0.5,0-0.9-0.4-1-0.9L23,21.5
		l-3.5,21.3C19.3,43.3,18.9,43.7,18.3,43.7C18.4,43.7,18.3,43.7,18.3,43.7z"/>
</g>
</svg>
