<?xml version="1.0" encoding="utf-8"?>
<!-- Generator: Adobe Illustrator 24.0.3, SVG Export Plug-In . SVG Version: 6.00 Build 0)  -->
<svg version="1.1" id="Layer_1" xmlns="http://www.w3.org/2000/svg" xmlns:xlink="http://www.w3.org/1999/xlink" x="0px" y="0px"
	 viewBox="0 0 55 55" style="enable-background:new 0 0 55 55;" xml:space="preserve">
<style type="text/css">
	.st0{fill:#EFEFEF;}
</style>
<g id="Layer_5">
	<path class="st0" d="M17.4,5.2c0,0,0.1,3.5-3.5,3.5c0,0,3.5,0.1,3.5,3.5"/>
	<path class="st0" d="M17.4,5.2c0,0-0.1,3.5,3.5,3.5c0,0-3.5,0.1-3.5,3.5"/>
	<path class="st0" d="M47,30.5c0,0,0.1,3.5-3.5,3.5c0,0,3.5,0.1,3.5,3.5"/>
	<path class="st0" d="M47,30.5c0,0-0.1,3.5,3.5,3.5c0,0-3.5,0.1-3.5,3.5"/>
	<path class="st0" d="M40.3,8.7c0,0,0.1,3.5-3.5,3.5c0,0,3.5,0.1,3.5,3.5"/>
	<path class="st0" d="M40.3,8.7c0,0-0.1,3.5,3.5,3.5c0,0-3.5,0.1-3.5,3.5"/>
	<path class="st0" d="M9.2,14.5c0,0,0.1,3.5-3.5,3.5c0,0,3.5,0.1,3.5,3.5"/>
	<path class="st0" d="M9.2,14.5c0,0-0.1,3.5,3.5,3.5c0,0-3.5,0.1-3.5,3.5"/>
	<path class="st0" d="M14.5,40.8c0,0,0.1,3.5-3.5,3.5c0,0,3.5,0.1,3.5,3.5"/>
	<path class="st0" d="M14.5,40.8c0,0-0.1,3.5,3.5,3.5c0,0-3.5,0.1-3.5,3.5"/>
	<path class="st0" d="M37.5,39.2c0,0,0.1,3.5-3.5,3.5c0,0,3.5,0.1,3.5,3.5"/>
	<path class="st0" d="M37.5,39.2c0,0-0.1,3.5,3.5,3.5c0,0-3.5,0.1-3.5,3.5"/>
	<path class="st0" d="M29.4,13.5c-1.1-0.4-2.2-0.6-3.3-0.7c5,3.2,7.3,9.5,5.2,15.4c-2.1,5.8-8,9.2-13.9,8.4c0.9,0.6,1.9,1.2,3,1.6
		c6.8,2.5,14.3-1,16.8-7.8C39.6,23.5,36.2,16,29.4,13.5z"/>
</g>
</svg>
