<?xml version="1.0" encoding="utf-8"?>
<!-- Generator: Adobe Illustrator 24.0.3, SVG Export Plug-In . SVG Version: 6.00 Build 0)  -->
<svg version="1.1" id="Layer_1" xmlns="http://www.w3.org/2000/svg" xmlns:xlink="http://www.w3.org/1999/xlink" x="0px" y="0px"
	 viewBox="0 0 55 55" style="enable-background:new 0 0 55 55;" xml:space="preserve">
<style type="text/css">
	.st0{fill:#EFEFEF;}
</style>
<g id="Layer_3">
	<path class="st0" d="M22.6,16.4L22.6,16.4L20,10.9l-2.6,5.5h0c-0.2,0.4-0.3,0.8-0.3,1.2c0,1.6,1.3,2.8,2.8,2.8s2.8-1.3,2.8-2.8
		C22.8,17.1,22.7,16.7,22.6,16.4z"/>
	<path class="st0" d="M30.1,16.4L30.1,16.4l-2.5-5.5l-2.6,5.5h0c-0.2,0.4-0.3,0.8-0.3,1.2c0,1.6,1.3,2.8,2.8,2.8s2.8-1.3,2.8-2.8
		C30.3,17.1,30.2,16.7,30.1,16.4z"/>
	<path class="st0" d="M37.6,16.4L37.6,16.4L35,10.9l-2.6,5.5h0c-0.2,0.4-0.3,0.8-0.3,1.2c0,1.6,1.3,2.8,2.8,2.8s2.8-1.3,2.8-2.8
		C37.8,17.1,37.7,16.7,37.6,16.4z"/>
	<path class="st0" d="M22.6,28.2L22.6,28.2L20,22.8l-2.6,5.5h0c-0.2,0.4-0.3,0.8-0.3,1.2c0,1.6,1.3,2.8,2.8,2.8s2.8-1.3,2.8-2.8
		C22.8,29,22.7,28.6,22.6,28.2z"/>
	<path class="st0" d="M30.1,28.2L30.1,28.2l-2.5-5.5l-2.6,5.5h0c-0.2,0.4-0.3,0.8-0.3,1.2c0,1.6,1.3,2.8,2.8,2.8s2.8-1.3,2.8-2.8
		C30.3,29,30.2,28.6,30.1,28.2z"/>
	<path class="st0" d="M37.6,28.2L37.6,28.2L35,22.8l-2.6,5.5h0c-0.2,0.4-0.3,0.8-0.3,1.2c0,1.6,1.3,2.8,2.8,2.8s2.8-1.3,2.8-2.8
		C37.8,29,37.7,28.6,37.6,28.2z"/>
	<path class="st0" d="M22.6,40.1L22.6,40.1L20,34.6l-2.6,5.5h0c-0.2,0.4-0.3,0.8-0.3,1.2c0,1.6,1.3,2.8,2.8,2.8s2.8-1.3,2.8-2.8
		C22.8,40.8,22.7,40.4,22.6,40.1z"/>
	<path class="st0" d="M30.1,40.1L30.1,40.1l-2.5-5.5l-2.6,5.5h0c-0.2,0.4-0.3,0.8-0.3,1.2c0,1.6,1.3,2.8,2.8,2.8s2.8-1.3,2.8-2.8
		C30.3,40.8,30.2,40.4,30.1,40.1z"/>
	<path class="st0" d="M37.6,40.1L37.6,40.1L35,34.6l-2.6,5.5h0c-0.2,0.4-0.3,0.8-0.3,1.2c0,1.6,1.3,2.8,2.8,2.8s2.8-1.3,2.8-2.8
		C37.8,40.8,37.7,40.4,37.6,40.1z"/>
</g>
</svg>
