<?xml version="1.0" encoding="utf-8"?>
<!-- Generator: Adobe Illustrator 24.0.3, SVG Export Plug-In . SVG Version: 6.00 Build 0)  -->
<svg version="1.1" id="Layer_1" xmlns="http://www.w3.org/2000/svg" xmlns:xlink="http://www.w3.org/1999/xlink" x="0px" y="0px"
	 viewBox="0 0 55 55" style="enable-background:new 0 0 55 55;" xml:space="preserve">
<style type="text/css">
	.st0{fill:#EFEFEF;}
</style>
<g id="Layer_6">
	<path class="st0" d="M32.3,31.5v13.4h-9.7V31.5c0-2.7,2.2-4.8,4.8-4.8S32.3,28.8,32.3,31.5z"/>
	<g>
		<path class="st0" d="M20.4,33.5v4L5,43.5L3.7,40l6-2.3l-0.9-2.5c-0.2-0.6,0.1-1.2,0.7-1.5c0.6-0.2,1.2,0.1,1.4,0.7l0.9,2.4
			L20.4,33.5z"/>
		<path class="st0" d="M34.6,32v-2.6c0-0.5,0-0.9-0.1-1.4l7.7-3l-1-2.5c-0.2-0.6,0.1-1.2,0.6-1.5c0.6-0.2,1.2,0.1,1.5,0.7l0.9,2.5
			l5.7-2.2l1.4,3.5L34.6,32z"/>
	</g>
</g>
</svg>
