<?xml version="1.0" encoding="utf-8"?>
<!-- Generator: Adobe Illustrator 24.0.3, SVG Export Plug-In . SVG Version: 6.00 Build 0)  -->
<svg version="1.1" id="Layer_1" xmlns="http://www.w3.org/2000/svg" xmlns:xlink="http://www.w3.org/1999/xlink" x="0px" y="0px"
	 viewBox="0 0 55 55" style="enable-background:new 0 0 55 55;" xml:space="preserve">
<style type="text/css">
	.st0{fill:#EFEFEF;}
</style>
<g id="Layer_5">
	<path class="st0" d="M31.9,21.6c1.9,5.1,1.7,7.8,0.5,9.1c-2.4-1.1-4.8-3.2-4.3-7.6c0,0,0.8-6.7-1.9-12.4
		c-0.9,11.4-12.1,15.2-12.1,26.1c0,5.4,4.3,9.9,10,11.2c-1.4-1-2-2.6-1.9-4.5c0.1-2.1,0.4-3.8,4.3-8.9c0.1,4.1,1.4,4.7,2.6,5.3
		c2.4,1.1,3.4,1.9,3.7,4.3c0.2,1.7-0.9,3.2-2.4,4c6.1-1.1,10.6-5.8,10.6-11.4C40.9,26,31.9,21.6,31.9,21.6z"/>
</g>
</svg>
