<?xml version="1.0" encoding="utf-8"?>
<!-- Generator: Adobe Illustrator 24.0.3, SVG Export Plug-In . SVG Version: 6.00 Build 0)  -->
<svg version="1.1" id="Soundrown_Logo" xmlns="http://www.w3.org/2000/svg" xmlns:xlink="http://www.w3.org/1999/xlink" x="0px"
	 y="0px" viewBox="0 0 190 15" style="enable-background:new 0 0 190 15;" xml:space="preserve">
<style type="text/css">
	.st0{fill:#EFEFEF;}
</style>
<g>
	<path class="st0" d="M4.8,5.6c0-1.8,1.1-2.6,3-2.6c1.9,0,4.2,0.8,4.2,0.8l0.4-1.7c-1.5-0.5-3-0.9-4.6-0.9c-3,0-4.9,1.6-4.9,4.5
		c0,5.7,8.2,4.4,8.8,8.2h1.9C13.5,8,4.8,9.8,4.8,5.6z"/>
	<path class="st0" d="M23.2,10.1c0-3.6,1.4-7.3,5.1-7.3c3.4,0,5.1,3.6,5.1,7.2c0,1.4-0.2,2.7-0.6,3.8h2c0.3-1.1,0.5-2.4,0.5-3.7
		c0-5-2.2-8.9-7-8.9c-4.8,0-7,4-7,8.9c0,1.3,0.2,2.6,0.5,3.7h2C23.3,12.7,23.2,11.4,23.2,10.1z"/>
	<path class="st0" d="M55.9,12.6V1.4H54v11.4c0,0.3,0,0.6-0.1,1h1.9C55.9,13.4,55.9,13,55.9,12.6z"/>
	<path class="st0" d="M45.7,12.9V1.4h-1.9v11.1c0,0.4,0,0.9,0.1,1.3h1.9C45.7,13.5,45.7,13.2,45.7,12.9z"/>
	<polygon class="st0" points="67.5,5 72.8,13.8 74.8,13.8 67.5,1.4 65.5,1.4 65.5,13.8 67.5,13.8 	"/>
	<rect x="76.2" y="1.4" class="st0" width="1.9" height="12.4"/>
	<path class="st0" d="M89.7,3.1h2.5c3.2,0,6.2,2.2,6.2,6.4c0,1.7-0.4,3.2-1,4.4h2.2c0.5-1.2,0.8-2.6,0.8-4.2c0-4.7-3.2-8.2-8.3-8.2
		h-4.5v12.4h2L89.7,3.1L89.7,3.1z"/>
	<path class="st0" d="M110.9,10.8h1.6c2.4,0,3.3,0.5,4.2,2.6l0.2,0.4h2l-0.3-0.7c-1-2.3-1.4-2.6-3-3c2.1-0.3,3.6-2.2,3.6-4.2
		c0-2.8-1.7-4.5-5.2-4.5H109v12.4h1.9L110.9,10.8L110.9,10.8z M110.9,3h3.1c2,0,3.2,1,3.2,3c0,1.8-1.3,3.2-3.4,3.2h-2.8V3z"/>
	<path class="st0" d="M130,10.1c0-3.6,1.4-7.3,5.1-7.3c3.4,0,5.1,3.6,5.1,7.2c0,1.4-0.2,2.7-0.6,3.8h2c0.3-1.1,0.5-2.4,0.5-3.7
		c0-5-2.2-8.9-7-8.9c-4.8,0-7,4-7,8.9c0,1.3,0.2,2.6,0.5,3.7h2C130.2,12.7,130,11.4,130,10.1z"/>
	<polygon class="st0" points="158,8.8 159.2,13.8 160.9,13.8 158.7,6.2 157.2,6.2 154.9,13.8 156.4,13.8 	"/>
	<polygon class="st0" points="150.8,1.5 148.6,1.5 151.5,13.8 153.3,13.8 	"/>
	<polygon class="st0" points="166.9,1.5 164.9,1.5 162.4,13.8 164,13.8 	"/>
	<polygon class="st0" points="176.5,5 181.9,13.8 183.9,13.8 176.5,1.4 174.6,1.4 174.6,13.8 176.5,13.8 	"/>
	<rect x="185.2" y="1.4" class="st0" width="1.9" height="12.4"/>
</g>
</svg>
